<svg xmlns="http://www.w3.org/2000/svg" xmlns:xlink="http://www.w3.org/1999/xlink" version="1.0" x="0px" y="0px" viewBox="0 0 128 160" style="enable-background:new 0 0 128 128;" xml:space="preserve"><style type="text/css">
	.st0{display:none;}
	.st1{display:inline;}
</style><g><path d="M16.1,123.8c0.8,0.3,1.7,0.5,2.6,0.5c0.9,0,1.8-0.2,2.6-0.5c1.7-0.7,3-2,3.7-3.7l28.4-69.4c3.7,2.3,7.3,4.9,10.7,7.6   c9,7.3,16.9,16,23.2,25.7l1.6,2.5l1.7-2.5c6.7-9.8,12.3-20.3,16.7-31.3c4.3-10.5,7.5-21.5,9.5-32.7l0.6-3.2l-3.1,0.9   c-11.8,3.4-23.9,4.6-36,3.4c-4.1-0.4-8.1-1.1-12.1-2l3.1-7.6c0.7-1.7,0.7-3.5,0-5.2c-0.7-1.7-2-3-3.7-3.7C64,2,62.1,2,60.4,2.7   c-1.7,0.7-3,2-3.7,3.7l-3.6,8.8c-1.5-0.6-3.1-1.2-4.6-1.9L47,12.7l-0.9,1.4c-2.8,4.3-5.2,8.8-6.9,13.6c-1.5,4-2.6,8.1-3.3,12.3   l-0.3,1.6l1.5,0.6c1.5,0.6,2.9,1.3,4.3,1.9l-29,70.8C10.9,118.4,12.6,122.4,16.1,123.8z M103.7,51.3c-4,9.8-8.9,19.2-14.7,28.1   c-2.7-3.9-5.7-7.7-8.8-11.2l0.5,0.4c5.3-6.7,9.5-14.2,12.7-22.2c2.7-6.9,4.5-14.1,5.4-21.4c4.6-0.5,9.1-1.3,13.6-2.5   C110.3,32.3,107.4,42,103.7,51.3z M60.5,8c0.3-0.7,0.8-1.2,1.5-1.5c0.7-0.3,1.5-0.3,2.2,0c0.7,0.3,1.2,0.8,1.5,1.5s0.3,1.5,0,2.2   l-3.3,8.1c-1.8-0.5-3.6-1.1-5.4-1.7L60.5,8z M42.9,29.1c1.5-4,3.4-7.8,5.6-11.4c9.4,4,19.3,6.5,29.5,7.5c5.6,0.5,11.2,0.6,16.7,0.2   c-0.9,6.7-2.6,13.3-5.1,19.5c-2.9,7.4-6.9,14.4-11.8,20.7c-3.5-3.7-7.2-7.2-11.2-10.4c-8.1-6.5-17-11.9-26.6-16.1   C40.7,35.7,41.7,32.4,42.9,29.1z M16,116.5l28.9-70.6c1.7,0.9,3.4,1.8,5,2.7l-28.7,70c-0.3,0.7-0.8,1.2-1.5,1.5   c-0.7,0.3-1.5,0.3-2.2,0C16.1,119.6,15.4,117.9,16,116.5z"/></g><text x="0" y="143" fill="#000000" font-size="5px" font-weight="bold" font-family="'Helvetica Neue', Helvetica, Arial-Unicode, Arial, Sans-serif">Created by SBTS</text><text x="0" y="148" fill="#000000" font-size="5px" font-weight="bold" font-family="'Helvetica Neue', Helvetica, Arial-Unicode, Arial, Sans-serif">from the Noun Project</text></svg>